<svg width="1755" height="660" viewBox="0 0 1755 660" fill="none" xmlns="http://www.w3.org/2000/svg">
<path d="M335.304 0C404.233 0 468.304 20.4539 521.584 55.5254V603.929C468.304 639 404.233 659.455 335.304 659.455C150.121 659.455 0 511.831 0 329.728C6.70896e-05 147.624 150.121 1.62276e-05 335.304 0ZM1192.19 299.146L980.649 659.455H521.584V603.929C611.444 544.778 670.607 444.048 670.607 329.728C670.607 215.407 611.444 114.676 521.584 55.5254V0H1192.19V299.146ZM1755 659.455H1192.19V299.146L1367.82 0L1755 659.455Z" fill="#E1E1E1"/>
</svg>
