<svg width="1755" height="660" viewBox="0 0 1755 660" fill="none" xmlns="http://www.w3.org/2000/svg">
<path d="M335.304 0C404.233 0 468.304 20.4539 521.584 55.5254V603.929C468.304 639 404.233 659.455 335.304 659.455C150.121 659.455 0 511.831 0 329.728C6.70896e-05 147.624 150.121 1.62276e-05 335.304 0ZM1192.19 299.146L980.649 659.455H521.584V603.929C611.444 544.778 670.607 444.048 670.607 329.728C670.607 215.407 611.444 114.676 521.584 55.5254V0H1192.19V299.146ZM1755 659.455H1192.19V299.146L1367.82 0L1755 659.455ZM431.758 375.368C429.667 375.368 427.897 376.093 426.446 377.544C424.996 378.995 424.27 380.766 424.27 382.856C424.27 384.904 424.996 386.653 426.446 388.104C427.897 389.554 429.667 390.28 431.758 390.28C433.848 390.28 435.62 389.554 437.07 388.104C438.521 386.653 439.246 384.904 439.246 382.856C439.246 380.766 438.521 378.995 437.07 377.544C435.62 376.093 433.848 375.346 431.758 375.304V375.368ZM173.096 340.744V389H200.552V378.376H185.64V370.056H199.784V359.432H185.64V351.368H200.552V340.744H173.096ZM208.796 340.744V351.368H227.739L204.892 389H246.235V378.376H226.012L248.731 340.744H208.796ZM253.533 340.744V389H280.989V378.376H266.077V370.056H280.222V359.432H266.077V351.368H280.989V340.744H253.533ZM288.721 340.744V389H301.265V368.072H301.393L317.585 389H333.841L312.913 363.592L332.113 340.744H316.561L301.393 360.648H301.265V340.744H288.721ZM337.221 340.744V389H349.765V340.744H337.221ZM357.971 340.744V389H385.427V378.376H370.515V370.056H384.659V359.432H370.515V351.368H385.427V340.744H357.971ZM393.158 340.744V389H420.742V378.376H405.702V340.744H393.158ZM295.852 265.208C288.897 265.208 282.71 267.533 277.292 272.184C271.873 276.792 269.164 282.744 269.164 290.04C269.164 297.848 271.681 304.226 276.716 309.176C281.75 314.125 288.129 316.6 295.852 316.6C303.617 316.6 309.996 314.125 314.988 309.176C320.023 304.226 322.54 297.848 322.54 290.04C322.54 282.744 319.831 276.792 314.412 272.184C308.993 267.533 302.806 265.186 295.852 265.144V265.208ZM366.668 265.528C361.847 265.528 357.857 267 354.699 269.944C351.585 272.888 350.027 276.813 350.027 281.72C350.027 286.285 351.159 289.4 353.42 291.064C355.681 292.728 358.711 294.094 362.508 295.16C362.593 295.203 362.678 295.245 362.764 295.288C362.892 295.288 362.999 295.309 363.084 295.352C363.51 295.48 363.979 295.629 364.491 295.8C365.003 295.928 365.515 296.077 366.027 296.248C367.222 296.675 368.289 297.25 369.228 297.976C370.209 298.701 370.699 299.662 370.699 300.856C370.699 302.435 370.124 303.63 368.972 304.44C367.82 305.208 366.54 305.634 365.132 305.72H364.619C362.486 305.72 360.481 305.229 358.604 304.248C356.769 303.267 355.062 302.072 353.483 300.664L348.107 310.84C350.582 312.547 353.271 313.891 356.172 314.872C359.073 315.811 362.038 316.28 365.067 316.28C365.366 316.28 365.665 316.258 365.964 316.216H366.987C369.121 316.045 371.212 315.618 373.26 314.936C375.308 314.253 377.142 313.208 378.764 311.8C380.555 310.264 381.814 308.451 382.539 306.36C383.264 304.227 383.671 302.051 383.756 299.832V298.808C383.756 294.883 382.604 291.96 380.3 290.04C378.038 288.077 375.222 286.584 371.852 285.56L368.651 284.664C368.353 284.579 368.033 284.494 367.691 284.408C367.393 284.28 367.073 284.152 366.731 284.024C365.835 283.64 365.003 283.149 364.235 282.552C363.467 281.912 363.084 281.08 363.084 280.056C363.084 278.989 363.489 278.136 364.3 277.496C365.11 276.856 366.006 276.429 366.987 276.216C367.243 276.13 367.5 276.088 367.756 276.088C368.012 276.045 368.247 276.024 368.46 276.024C369.996 276.024 371.468 276.323 372.876 276.92C374.326 277.475 375.627 278.222 376.779 279.16L381.745 269.481C381.754 269.486 381.763 269.491 381.771 269.496V269.432L381.745 269.481C380.472 268.762 379.051 268.127 377.483 267.576C375.947 267.022 374.368 266.574 372.747 266.232C371.723 265.976 370.7 265.805 369.676 265.72C368.652 265.592 367.649 265.528 366.668 265.528ZM187.304 266.744L168.744 315H182.056L185.384 306.616H202.664L205.8 315H219.176L201 266.744H187.304ZM223.096 266.744V315H235.64V294.072H235.768L251.96 315H268.216L247.288 289.592L266.488 266.744H250.936L235.768 286.648H235.64V266.744H223.096ZM389.721 266.744V315H402.265V266.744H389.721ZM295.852 277.368C299.606 277.368 302.807 278.67 305.452 281.272C308.14 283.832 309.484 286.776 309.484 290.104C309.484 294.242 308.14 297.678 305.452 300.408C302.807 303.139 299.606 304.504 295.852 304.504C292.097 304.504 288.876 303.139 286.188 300.408C283.543 297.678 282.22 294.242 282.22 290.104C282.22 286.776 283.543 283.832 286.188 281.272C288.876 278.67 292.097 277.346 295.852 277.304V277.368ZM194.152 281.656L199.272 297.016H188.84L194.024 281.656H194.152Z" fill="#2941B5"/>
</svg>
