<svg width="2116" height="2116" viewBox="0 0 2116 2116" fill="none" xmlns="http://www.w3.org/2000/svg">
<circle cx="1058" cy="1058" r="1058" fill="white"/>
<path d="M515.304 728C584.233 728 648.304 748.454 701.584 783.525V1331.93C648.304 1367 584.233 1387.46 515.304 1387.46C330.121 1387.46 180 1239.83 180 1057.73C180 875.624 330.121 728 515.304 728ZM1372.19 1027.15L1160.65 1387.46H701.584V1331.93C791.444 1272.78 850.607 1172.05 850.607 1057.73C850.607 943.407 791.444 842.676 701.584 783.525V728H1372.19V1027.15ZM1935 1387.46H1372.19V1027.15L1547.82 728L1935 1387.46Z" fill="#2941B5"/>
</svg>
